<svg width="24" height="24" viewBox="0 0 24 24" fill="none" xmlns="http://www.w3.org/2000/svg">
<path d="M23.3667 6.13428L20.0017 1.41628C19.6854 0.97444 19.2683 0.614403 18.785 0.366051C18.3017 0.117699 17.7661 -0.0118066 17.2227 -0.0117187H6.78071C6.23817 -0.0110123 5.7036 0.118874 5.22122 0.367193C4.73884 0.615512 4.32252 0.975126 4.00672 1.41628L0.635715 6.13528C0.209191 6.73993 -0.0106179 7.46618 0.00902306 8.20587C0.028664 8.94556 0.286704 9.65912 0.744715 10.2403L12.0017 24.1103L23.2727 10.2223C23.7256 9.64145 23.9793 8.93017 23.9962 8.19384C24.0132 7.45751 23.7924 6.73532 23.3667 6.13428ZM3.07772 7.87828L6.44772 3.16028C6.48567 3.10732 6.53564 3.06412 6.59352 3.03422C6.65141 3.00432 6.71556 2.98858 6.78071 2.98828H9.70171L8.27671 8.50028H15.7267L14.3017 2.98828H17.2247C17.2899 2.98858 17.354 3.00432 17.4119 3.03422C17.4698 3.06412 17.5198 3.10732 17.5577 3.16028L20.9267 7.87728C20.9767 7.94577 21.0041 8.02818 21.005 8.11298C21.0059 8.19778 20.9803 8.28075 20.9317 8.35028L20.8097 8.50028H15.7267L12.0017 19.3483L8.27671 8.50028H3.19572L3.08872 8.36828C3.03451 8.29862 3.00416 8.21335 3.00218 8.1251C3.0002 8.03685 3.02669 7.95031 3.07772 7.87828Z" fill="white"/>
</svg>
