<svg width="24" height="24" viewBox="0 0 24 24" fill="none" xmlns="http://www.w3.org/2000/svg">
<g clip-path="url(#clip0_2779_3797)">
<path d="M11 14H5C3.67441 14.0016 2.40356 14.5289 1.46622 15.4662C0.528882 16.4036 0.00158786 17.6744 0 19L0 24H3V19C3 18.4696 3.21071 17.9608 3.58579 17.5858C3.96086 17.2107 4.46957 17 5 17H11C11.5304 17 12.0391 17.2107 12.4142 17.5858C12.7893 17.9608 13 18.4696 13 19V24H16V19C15.9984 17.6744 15.4711 16.4036 14.5338 15.4662C13.5964 14.5289 12.3256 14.0016 11 14Z" fill="white"/>
<path d="M8 12C9.18669 12 10.3467 11.6481 11.3334 10.9888C12.3201 10.3295 13.0892 9.39246 13.5433 8.2961C13.9974 7.19975 14.1162 5.99335 13.8847 4.82946C13.6532 3.66558 13.0818 2.59648 12.2426 1.75736C11.4035 0.918247 10.3344 0.346802 9.17054 0.115291C8.00666 -0.11622 6.80026 0.00259972 5.7039 0.456726C4.60754 0.910851 3.67047 1.67989 3.01118 2.66658C2.35189 3.65328 2 4.81331 2 6C2.00159 7.59081 2.63424 9.11602 3.75911 10.2409C4.88399 11.3658 6.40919 11.9984 8 12ZM8 3C8.59334 3 9.17336 3.17595 9.66671 3.50559C10.1601 3.83524 10.5446 4.30377 10.7716 4.85195C10.9987 5.40013 11.0581 6.00333 10.9424 6.58527C10.8266 7.16722 10.5409 7.70177 10.1213 8.12132C9.70176 8.54088 9.16721 8.8266 8.58527 8.94236C8.00333 9.05812 7.40013 8.9987 6.85195 8.77164C6.30377 8.54458 5.83524 8.16006 5.50559 7.66671C5.17595 7.17337 5 6.59335 5 6C5 5.20435 5.31607 4.44129 5.87868 3.87868C6.44129 3.31607 7.20435 3 8 3Z" fill="white"/>
<path d="M21.7486 7.41602C21.1224 7.44711 20.5341 7.725 20.1124 8.18886C19.6907 8.65273 19.47 9.26477 19.4986 9.89102C19.5271 9.26477 19.3064 8.65273 18.8847 8.18886C18.463 7.725 17.8747 7.44711 17.2486 7.41602C16.6224 7.44711 16.0341 7.725 15.6124 8.18886C15.1907 8.65273 14.97 9.26477 14.9986 9.89102C14.9986 12.483 19.4986 15.666 19.4986 15.666C19.4986 15.666 23.9986 12.483 23.9986 9.89102C24.0271 9.26477 23.8064 8.65273 23.3847 8.18886C22.963 7.725 22.3747 7.44711 21.7486 7.41602Z" fill="white"/>
</g>
<defs>
<clipPath id="clip0_2779_3797">
<rect width="24" height="24" fill="white"/>
</clipPath>
</defs>
</svg>
