<svg width="16" height="16" viewBox="0 0 16 16" fill="none" xmlns="http://www.w3.org/2000/svg">
<path d="M10.6767 1.33398H5.2967C4.24547 1.33522 3.23765 1.75341 2.49438 2.49681C1.75111 3.2402 1.33309 4.24809 1.33203 5.29932L1.33203 10.6793C1.33327 11.7305 1.75146 12.7384 2.49486 13.4816C3.23825 14.2249 4.24613 14.6429 5.29736 14.644H10.6774C11.7286 14.6427 12.7364 14.2246 13.4797 13.4812C14.2229 12.7378 14.641 11.7299 14.642 10.6787V5.29865C14.6408 4.24742 14.2226 3.23961 13.4792 2.49634C12.7358 1.75307 11.7279 1.33504 10.6767 1.33398V1.33398ZM13.3034 10.6787C13.3034 11.0236 13.2354 11.3652 13.1034 11.6838C12.9714 12.0025 12.7779 12.2921 12.534 12.536C12.2901 12.7799 12.0006 12.9734 11.6819 13.1054C11.3632 13.2374 11.0216 13.3053 10.6767 13.3053H5.2967C4.60018 13.3051 3.93225 13.0283 3.4398 12.5357C2.94734 12.0432 2.6707 11.3752 2.6707 10.6787V5.29865C2.67087 4.60213 2.94769 3.9342 3.44027 3.44175C3.93284 2.9493 4.60084 2.67265 5.29736 2.67265H10.6774C11.3739 2.67283 12.0418 2.94964 12.5343 3.44222C13.0267 3.9348 13.3034 4.6028 13.3034 5.29932V10.6793V10.6787Z" fill="#333333"/>
<path d="M7.98821 4.54492C7.07583 4.54633 6.20123 4.90945 5.55614 5.55466C4.91105 6.19987 4.54811 7.07454 4.54688 7.98692C4.54793 8.89953 4.91089 9.77447 5.55614 10.4199C6.20139 11.0652 7.07626 11.4284 7.98887 11.4296C8.9016 11.4285 9.77664 11.0655 10.422 10.4201C11.0674 9.77469 11.4305 8.89965 11.4315 7.98692C11.4301 7.07431 11.0668 6.19951 10.4213 5.55438C9.77583 4.90926 8.90082 4.54647 7.98821 4.54559V4.54492ZM7.98821 10.0909C7.43037 10.0909 6.89538 9.86932 6.50093 9.47487C6.10648 9.08042 5.88488 8.54543 5.88488 7.98759C5.88488 7.42975 6.10648 6.89476 6.50093 6.50031C6.89538 6.10586 7.43037 5.88426 7.98821 5.88426C8.54605 5.88426 9.08104 6.10586 9.47549 6.50031C9.86994 6.89476 10.0915 7.42975 10.0915 7.98759C10.0915 8.54543 9.86994 9.08042 9.47549 9.47487C9.08104 9.86932 8.54605 10.0909 7.98821 10.0909Z" fill="#333333"/>
<path d="M11.4379 5.39738C11.8934 5.39738 12.2626 5.02816 12.2626 4.57271C12.2626 4.11726 11.8934 3.74805 11.4379 3.74805C10.9825 3.74805 10.6133 4.11726 10.6133 4.57271C10.6133 5.02816 10.9825 5.39738 11.4379 5.39738Z" fill="#333333"/>
</svg>
