<svg width="14" height="10" viewBox="0 0 14 10" fill="none" xmlns="http://www.w3.org/2000/svg">
<path d="M5.48526 9.72941C5.35399 9.72967 5.22396 9.70402 5.10264 9.65391C4.98131 9.6038 4.87108 9.53022 4.77826 9.43741L0.536255 5.19441C0.440682 5.10223 0.364424 4.99194 0.311931 4.86997C0.259437 4.748 0.23176 4.6168 0.230513 4.48403C0.229266 4.35125 0.254475 4.21955 0.304669 4.09662C0.354863 3.97369 0.429037 3.86199 0.522862 3.76803C0.616687 3.67407 0.728286 3.59974 0.851145 3.54937C0.974005 3.499 1.10566 3.47361 1.23844 3.47467C1.37122 3.47573 1.50246 3.50322 1.6245 3.55554C1.74654 3.60786 1.85694 3.68396 1.94926 3.77941L5.48426 7.31441L11.8493 0.951406C12.0368 0.763765 12.2911 0.658297 12.5564 0.658203C12.8217 0.658109 13.0761 0.763398 13.2638 0.950906C13.4514 1.13841 13.5569 1.39278 13.557 1.65805C13.5571 1.92332 13.4518 2.17777 13.2643 2.36541L6.19226 9.43741C6.09943 9.53022 5.9892 9.6038 5.86787 9.65391C5.74655 9.70402 5.61652 9.72967 5.48526 9.72941Z" fill="white"/>
</svg>
