<svg width="16" height="16" viewBox="0 0 16 16" fill="none" xmlns="http://www.w3.org/2000/svg">
<path d="M14.6654 3.93909C14.1656 4.15734 13.6363 4.30044 13.0947 4.36375C13.6632 4.02991 14.0907 3.50049 14.2974 2.87442C13.7587 3.18797 13.1712 3.40882 12.5594 3.52775C12.3017 3.25789 11.9918 3.04334 11.6485 2.8972C11.3053 2.75107 10.9358 2.6764 10.5627 2.67775C9.05203 2.67775 7.82736 3.88442 7.82736 5.37109C7.82736 5.58175 7.85136 5.78775 7.89803 5.98442C6.81442 5.93288 5.75344 5.65602 4.78281 5.17151C3.81218 4.687 2.9532 4.00547 2.2607 3.17042C2.01792 3.58002 1.89031 4.04761 1.89136 4.52375C1.89183 4.96906 2.00325 5.40724 2.21556 5.79868C2.42787 6.19012 2.73437 6.52249 3.10736 6.76575C2.67369 6.75175 2.24938 6.63597 1.8687 6.42775V6.46109C1.8687 7.76642 2.81203 8.85509 4.06203 9.10309C3.82711 9.16542 3.58509 9.19702 3.34203 9.19709C3.16536 9.19709 2.99403 9.18042 2.8267 9.14709C3.00542 9.6857 3.34744 10.1553 3.80524 10.4906C4.26305 10.826 4.81393 11.0105 5.38136 11.0184C4.40808 11.7681 3.21324 12.1731 1.9847 12.1698C1.76336 12.1698 1.54603 12.1564 1.33203 12.1324C2.5862 12.9262 4.04043 13.3466 5.5247 13.3444C10.556 13.3444 13.3067 9.23975 13.3067 5.68042L13.2974 5.33175C13.8339 4.9542 14.2975 4.48232 14.6654 3.93909Z" fill="#333333"/>
</svg>
