<svg width="16" height="16" viewBox="0 0 16 16" fill="none" xmlns="http://www.w3.org/2000/svg">
<path d="M13.3651 2.01808H11.7501C11.7501 1.72975 11.7501 1.44225 11.7501 1.15475C11.7501 1.05141 11.7501 0.94808 11.7501 0.844747C11.7501 0.626414 11.5584 0.41808 11.3334 0.42808C11.1076 0.43808 10.9168 0.611414 10.9168 0.844747C10.9168 1.23558 10.9168 1.62725 10.9168 2.01808H5.08343C5.08343 1.72975 5.08343 1.44225 5.08343 1.15475C5.08343 1.05141 5.08343 0.94808 5.08343 0.844747C5.08343 0.626414 4.89176 0.41808 4.66676 0.42808C4.44092 0.43808 4.25009 0.611414 4.25009 0.844747C4.25009 1.23558 4.25009 1.62725 4.25009 2.01808H2.63509C1.48676 2.01808 0.551758 2.95308 0.551758 4.10141V13.2681C0.551758 14.4172 1.48676 15.3514 2.63509 15.3514H13.3643C14.5134 15.3514 15.4476 14.4172 15.4476 13.2681V4.10141C15.4484 2.95308 14.5134 2.01808 13.3651 2.01808ZM2.63509 2.85141H4.25009C4.25009 2.91225 4.25009 2.97391 4.25009 3.03475C4.25009 3.13808 4.25009 3.24141 4.25009 3.34475C4.25009 3.56308 4.44176 3.77141 4.66676 3.76141C4.89259 3.75141 5.08343 3.57808 5.08343 3.34475C5.08343 3.18058 5.08343 3.01641 5.08343 2.85141H10.9168C10.9168 2.91225 10.9168 2.97391 10.9168 3.03475C10.9168 3.13808 10.9168 3.24141 10.9168 3.34475C10.9168 3.56308 11.1084 3.77141 11.3334 3.76141C11.5593 3.75141 11.7501 3.57808 11.7501 3.34475C11.7501 3.18058 11.7501 3.01641 11.7501 2.85141H13.3643C14.0534 2.85141 14.6143 3.41225 14.6143 4.10141V5.42141H1.38509V4.10141C1.38509 3.41225 1.94592 2.85141 2.63509 2.85141ZM13.3651 14.5181H2.63509C1.94592 14.5181 1.38509 13.9572 1.38509 13.2681V6.25475H14.6143V13.2681C14.6151 13.9572 14.0543 14.5181 13.3651 14.5181Z" fill="white"/>
</svg>
