<svg width="18" height="18" viewBox="0 0 18 18" fill="none" xmlns="http://www.w3.org/2000/svg">
<path d="M9.00016 17.1683C7.36302 17.1683 5.76265 16.6828 4.40143 15.7733C3.0402 14.8637 1.97925 13.571 1.35275 12.0584C0.726243 10.5459 0.562321 8.8816 0.88171 7.27592C1.2011 5.67025 1.98945 4.19534 3.14708 3.03771C4.30471 1.88008 5.77962 1.09172 7.3853 0.772335C8.99098 0.452946 10.6553 0.616868 12.1678 1.24337C13.6803 1.86988 14.9731 2.93082 15.8826 4.29205C16.7922 5.65328 17.2777 7.25365 17.2777 8.89078C17.2752 11.0854 16.4024 13.1894 14.8506 14.7412C13.2987 16.293 11.1947 17.1659 9.00016 17.1683ZM9.00016 1.44662C7.52784 1.44662 6.08859 1.88321 4.8644 2.70119C3.64022 3.51916 2.68608 4.68178 2.12265 6.04203C1.55922 7.40227 1.4118 8.89904 1.69903 10.3431C1.98627 11.7871 2.69525 13.1135 3.73634 14.1546C4.77742 15.1957 6.10385 15.9047 7.54787 16.1919C8.9919 16.4791 10.4887 16.3317 11.8489 15.7683C13.2092 15.2049 14.3718 14.2507 15.1898 13.0265C16.0077 11.8024 16.4443 10.3631 16.4443 8.89078C16.4421 6.91715 15.6571 5.02497 14.2615 3.6294C12.866 2.23383 10.9738 1.44882 9.00016 1.44662Z" fill="white"/>
<path d="M8.5835 3.89128C8.5835 3.78077 8.62739 3.67479 8.70553 3.59665C8.78367 3.51851 8.88966 3.47461 9.00016 3.47461C9.11067 3.47461 9.21665 3.51851 9.29479 3.59665C9.37293 3.67479 9.41683 3.78077 9.41683 3.89128V7.89128C10.3585 6.94961 11.3002 5.99961 12.2418 5.05794C12.3203 4.97948 12.4267 4.9354 12.5377 4.9354C12.6486 4.9354 12.755 4.97948 12.8335 5.05794C12.912 5.1364 12.956 5.24282 12.956 5.35378C12.956 5.46474 12.912 5.57115 12.8335 5.64961L9.2835 9.19128C9.2219 9.25505 9.14022 9.29567 9.05219 9.3063C8.96416 9.31692 8.87516 9.2969 8.80016 9.24961C8.79183 9.23294 8.7835 9.23294 8.77516 9.23294C8.72455 9.20547 8.6814 9.16606 8.64945 9.11814C8.6175 9.07022 8.59773 9.01523 8.59183 8.95794L8.5835 3.89128Z" fill="white"/>
</svg>
