<svg width="24" height="24" viewBox="0 0 24 24" fill="none" xmlns="http://www.w3.org/2000/svg">
<path d="M16.0072 2H7.93723C6.36039 2.00185 4.84867 2.62914 3.73376 3.74424C2.61886 4.85933 1.99182 6.37115 1.99023 7.948L1.99023 16.018C1.99209 17.5948 2.61938 19.1066 3.73447 20.2215C4.84956 21.3364 6.36139 21.9634 7.93823 21.965H16.0082C17.5851 21.9631 19.0968 21.3359 20.2117 20.2208C21.3266 19.1057 21.9536 17.5938 21.9552 16.017V7.947C21.9534 6.37015 21.3261 4.85844 20.211 3.74353C19.0959 2.62862 17.5841 2.00159 16.0072 2V2ZM19.9472 16.017C19.9472 16.5344 19.8453 17.0468 19.6473 17.5248C19.4493 18.0028 19.1591 18.4371 18.7932 18.803C18.4274 19.1689 17.993 19.4591 17.515 19.6571C17.037 19.8551 16.5246 19.957 16.0072 19.957H7.93723C6.89245 19.9567 5.89056 19.5415 5.15188 18.8026C4.4132 18.0638 3.99823 17.0618 3.99823 16.017V7.947C3.9985 6.90222 4.41372 5.90032 5.15259 5.16165C5.89145 4.42297 6.89345 4.008 7.93823 4.008H16.0082C17.053 4.00827 18.0549 4.42349 18.7936 5.16235C19.5323 5.90122 19.9472 6.90322 19.9472 7.948V16.018V16.017Z" fill="#C0C0C0"/>
<path d="M11.9725 6.81836C10.604 6.82048 9.29208 7.36514 8.32445 8.33297C7.35681 9.30079 6.8124 10.6128 6.81055 11.9814C6.81213 13.3503 7.35657 14.6627 8.32445 15.6308C9.29233 16.5988 10.6046 17.1435 11.9735 17.1454C13.3426 17.1438 14.6552 16.5992 15.6233 15.6311C16.5914 14.663 17.136 13.3505 17.1375 11.9814C17.1354 10.6124 16.5905 9.30024 15.6222 8.33255C14.654 7.36486 13.3415 6.82068 11.9725 6.81936V6.81836ZM11.9725 15.1374C11.1358 15.1374 10.3333 14.805 9.74162 14.2133C9.14995 13.6216 8.81755 12.8191 8.81755 11.9824C8.81755 11.1456 9.14995 10.3431 9.74162 9.75144C10.3333 9.15976 11.1358 8.82736 11.9725 8.82736C12.8093 8.82736 13.6118 9.15976 14.2035 9.75144C14.7951 10.3431 15.1275 11.1456 15.1275 11.9824C15.1275 12.8191 14.7951 13.6216 14.2035 14.2133C13.6118 14.805 12.8093 15.1374 11.9725 15.1374Z" fill="#C0C0C0"/>
<path d="M17.1462 8.09509C17.8294 8.09509 18.3832 7.54127 18.3832 6.85809C18.3832 6.17492 17.8294 5.62109 17.1462 5.62109C16.463 5.62109 15.9092 6.17492 15.9092 6.85809C15.9092 7.54127 16.463 8.09509 17.1462 8.09509Z" fill="#C0C0C0"/>
</svg>
