<svg width="20" height="17" viewBox="0 0 20 17" fill="none" xmlns="http://www.w3.org/2000/svg">
<path d="M19.9902 1.90765C19.2406 2.23503 18.4467 2.44969 17.6342 2.54465C18.487 2.04388 19.1283 1.24976 19.4382 0.310652C18.6302 0.78098 17.749 1.11226 16.8312 1.29065C16.4448 0.885858 15.9799 0.56404 15.465 0.344831C14.9501 0.125621 14.3959 0.0136176 13.8362 0.0156522C11.5702 0.0156522 9.73323 1.82565 9.73323 4.05565C9.73323 4.37165 9.76923 4.68065 9.83923 4.97565C8.21381 4.89835 6.62235 4.48306 5.1664 3.75629C3.71045 3.02952 2.42199 2.00723 1.38323 0.754652C1.01906 1.36905 0.827649 2.07043 0.829234 2.78465C0.829931 3.45262 0.997063 4.10988 1.31552 4.69705C1.63399 5.28421 2.09374 5.78276 2.65323 6.14765C2.00272 6.12665 1.36626 5.95298 0.795234 5.64065V5.69065C0.795234 7.64865 2.21023 9.28165 4.08523 9.65365C3.73285 9.74715 3.36982 9.79455 3.00523 9.79465C2.74023 9.79465 2.48323 9.76965 2.23223 9.71965C2.50032 10.5276 3.01334 11.232 3.70005 11.735C4.38676 12.238 5.21308 12.5147 6.06423 12.5267C4.6043 13.6512 2.81205 14.2587 0.969234 14.2537C0.637234 14.2537 0.311234 14.2337 -0.00976562 14.1977C1.87149 15.3884 4.05283 16.0189 6.27923 16.0157C13.8262 16.0157 17.9522 9.85865 17.9522 4.51965L17.9382 3.99665C18.7431 3.43032 19.4384 2.7225 19.9902 1.90765Z" fill="#C0C0C0"/>
</svg>
