<svg width="20" height="14" viewBox="0 0 20 14" fill="none" xmlns="http://www.w3.org/2000/svg">
<path d="M15.8022 0.016625H4.13523C1.84523 0.016625 -0.00976562 1.85163 -0.00976562 4.11563V9.88363C-0.00976562 12.1476 1.84623 13.9836 4.13523 13.9836H15.8022C18.0922 13.9836 19.9472 12.1476 19.9472 9.88363V4.11563C19.9472 1.85163 18.0912 0.015625 15.8022 0.015625V0.016625ZM12.9992 7.27963L7.54223 9.85462C7.50895 9.87065 7.47215 9.878 7.43527 9.87598C7.39838 9.87396 7.3626 9.86264 7.33127 9.84308C7.29993 9.82352 7.27405 9.79635 7.25604 9.7641C7.23802 9.73185 7.22846 9.69557 7.22823 9.65863V4.34963C7.2289 4.3125 7.23895 4.27614 7.25746 4.24395C7.27596 4.21176 7.30231 4.18477 7.33405 4.1655C7.3658 4.14624 7.4019 4.13532 7.439 4.13377C7.4761 4.13221 7.51299 4.14008 7.54623 4.15663L13.0042 6.89163C13.0406 6.90976 13.0711 6.93777 13.0922 6.97245C13.1134 7.00713 13.1243 7.04708 13.1238 7.08769C13.1233 7.12831 13.1113 7.16796 13.0893 7.20209C13.0673 7.23621 13.036 7.26344 12.9992 7.28063V7.27963Z" fill="#C0C0C0"/>
</svg>
