<svg width="25" height="26" viewBox="0 0 25 26" fill="none" xmlns="http://www.w3.org/2000/svg">
<path d="M12.5047 1.23242C19.1917 1.23242 24.6095 6.65031 24.6095 13.3372C24.6095 20.0242 19.1917 25.4421 12.5047 25.4421C5.81779 25.4421 0.399902 20.0242 0.399902 13.3372C0.399902 6.65031 5.81779 1.23242 12.5047 1.23242ZM11.0941 8.2415L14.7793 11.7753H5.8666C5.21743 11.7753 4.69516 12.2976 4.69516 12.9468V13.7277C4.69516 14.3769 5.21743 14.8992 5.8666 14.8992H14.7793L11.0941 18.433C10.6207 18.8869 10.6109 19.6435 11.0746 20.1072L11.6115 20.6392C12.0703 21.098 12.8122 21.098 13.2662 20.6392L19.7432 14.167C20.202 13.7082 20.202 12.9663 19.7432 12.5124L13.2662 6.03042C12.8073 5.57161 12.0654 5.57161 11.6115 6.03042L11.0746 6.56245C10.6109 7.03102 10.6207 7.78757 11.0941 8.2415Z" fill="#C0C0C0"/>
</svg>
