<svg width="12" height="14" viewBox="0 0 12 14" fill="none" xmlns="http://www.w3.org/2000/svg">
<path d="M6.64805 13.6402C8.05078 11.8848 11.25 7.63008 11.25 5.24023C11.25 2.3418 8.89844 -0.00976562 6 -0.00976562C3.10156 -0.00976562 0.75 2.3418 0.75 5.24023C0.75 7.63008 3.94922 11.8848 5.35195 13.6402C5.68828 14.0586 6.31172 14.0586 6.64805 13.6402ZM6 3.49023C6.46413 3.49023 6.90925 3.67461 7.23744 4.0028C7.56563 4.33099 7.75 4.77611 7.75 5.24023C7.75 5.70436 7.56563 6.14948 7.23744 6.47767C6.90925 6.80586 6.46413 6.99023 6 6.99023C5.53587 6.99023 5.09075 6.80586 4.76256 6.47767C4.43437 6.14948 4.25 5.70436 4.25 5.24023C4.25 4.77611 4.43437 4.33099 4.76256 4.0028C5.09075 3.67461 5.53587 3.49023 6 3.49023Z" fill="#A3A7AA"/>
</svg>
