<svg width="24" height="24" viewBox="0 0 24 24" fill="none" xmlns="http://www.w3.org/2000/svg">
<g clip-path="url(#clip0_2065_4986)">
<path d="M19.3332 9.33275C18.5771 9.33214 17.8325 9.14755 17.1637 8.79493C16.4949 8.44231 15.9219 7.93225 15.4942 7.30875L8.98518 10.2478C9.44749 11.3641 9.44929 12.6181 8.99018 13.7358L15.4902 16.6898C16.124 15.773 17.0655 15.1138 18.1438 14.8317C19.222 14.5496 20.3657 14.6633 21.3673 15.1523C22.3689 15.6412 23.1621 16.4729 23.603 17.4965C24.0439 18.5201 24.1034 19.6679 23.7705 20.7316C23.4377 21.7953 22.7347 22.7045 21.7889 23.2942C20.8432 23.8839 19.7174 24.1152 18.6157 23.946C17.5141 23.7768 16.5096 23.2183 15.7844 22.3719C15.0592 21.5256 14.6614 20.4473 14.6632 19.3328C14.6674 19.069 14.6942 18.806 14.7432 18.5468L7.83318 15.4068C7.16952 16.0285 6.33868 16.4429 5.44275 16.599C4.54682 16.7551 3.6248 16.646 2.78999 16.2853C1.95517 15.9246 1.2439 15.3278 0.743573 14.5684C0.243244 13.809 -0.0243578 12.9199 -0.0263559 12.0105C-0.0283541 11.1011 0.235338 10.2109 0.732325 9.44926C1.22931 8.68764 1.93795 8.08778 2.77117 7.72338C3.6044 7.35897 4.52592 7.24589 5.42253 7.39803C6.31915 7.55016 7.15179 7.96089 7.81818 8.57975L14.7462 5.45175C14.6981 5.19274 14.6716 4.93016 14.6672 4.66675C14.667 3.74362 14.9406 2.84117 15.4533 2.07353C15.966 1.30589 16.6949 0.707554 17.5477 0.354197C18.4006 0.000837326 19.339 -0.0916691 20.2444 0.088377C21.1498 0.268421 21.9815 0.712931 22.6342 1.36568C23.287 2.01843 23.7315 2.85011 23.9116 3.75551C24.0916 4.66091 23.9991 5.59937 23.6457 6.4522C23.2924 7.30502 22.694 8.0339 21.9264 8.54664C21.1588 9.05938 20.2563 9.33295 19.3332 9.33275ZM19.3332 21.9998C19.8607 22 20.3764 21.8437 20.8152 21.5508C21.2539 21.2578 21.5959 20.8414 21.7979 20.3541C21.9999 19.8667 22.0528 19.3305 21.9501 18.8131C21.8473 18.2956 21.5933 17.8203 21.2204 17.4473C20.8474 17.0742 20.3722 16.8201 19.8549 16.7171C19.3375 16.6141 18.8012 16.6668 18.3138 16.8687C17.8264 17.0705 17.4098 17.4123 17.1167 17.8509C16.8236 18.2895 16.6672 18.8052 16.6672 19.3328C16.6677 20.0397 16.9487 20.7177 17.4486 21.2177C17.9484 21.7177 18.6262 21.999 19.3332 21.9998ZM4.66718 9.33275C4.13965 9.33255 3.62392 9.4888 3.1852 9.78174C2.74648 10.0747 2.40449 10.4911 2.20248 10.9784C2.00046 11.4658 1.94751 12.002 2.0503 12.5194C2.15309 13.0369 2.40702 13.5122 2.77997 13.8853C3.15292 14.2583 3.62813 14.5124 4.1455 14.6154C4.66288 14.7184 5.19917 14.6657 5.68656 14.4638C6.17395 14.262 6.59054 13.9202 6.88364 13.4816C7.17673 13.043 7.33318 12.5273 7.33318 11.9998C7.33238 11.2928 7.05128 10.6151 6.55151 10.1151C6.05174 9.61517 5.37409 9.33381 4.66718 9.33275ZM19.3332 1.99975C18.8057 1.99975 18.2901 2.15617 17.8515 2.44922C17.4129 2.74227 17.071 3.1588 16.8692 3.64613C16.6673 4.13346 16.6145 4.66971 16.7174 5.18706C16.8203 5.7044 17.0743 6.17962 17.4473 6.5526C17.8203 6.92559 18.2955 7.1796 18.8129 7.28251C19.3302 7.38541 19.8665 7.3326 20.3538 7.13074C20.8411 6.92888 21.2577 6.58704 21.5507 6.14846C21.8438 5.70987 22.0002 5.19423 22.0002 4.66675C21.9996 3.95958 21.7185 3.28152 21.2184 2.78148C20.7184 2.28144 20.0403 2.00028 19.3332 1.99975Z" fill="#C0C0C0"/>
</g>
<defs>
<clipPath id="clip0_2065_4986">
<rect width="24" height="24" fill="white" transform="matrix(1 0 0 -1 0 24)"/>
</clipPath>
</defs>
</svg>
