<svg width="32" height="32" viewBox="0 0 32 32" fill="none" xmlns="http://www.w3.org/2000/svg">
<circle cx="16" cy="16" r="15" fill="black" stroke="white" stroke-width="2"/>
<g clip-path="url(#clip0_3021_2533)">
<path d="M22 24.0007H20V20.6673C20 20.3137 19.8595 19.9746 19.6095 19.7245C19.3594 19.4745 19.0203 19.334 18.6667 19.334H13.3333C12.9797 19.334 12.6406 19.4745 12.3905 19.7245C12.1405 19.9746 12 20.3137 12 20.6673V24.0007H10V20.6673C10.0011 19.7836 10.3526 18.9364 10.9775 18.3115C11.6024 17.6866 12.4496 17.335 13.3333 17.334H18.6667C19.5504 17.335 20.3976 17.6866 21.0225 18.3115C21.6474 18.9364 21.9989 19.7836 22 20.6673V24.0007Z" fill="white"/>
<path d="M16 16C15.2089 16 14.4355 15.7654 13.7777 15.3259C13.1199 14.8864 12.6072 14.2616 12.3045 13.5307C12.0017 12.7998 11.9225 11.9956 12.0769 11.2196C12.2312 10.4437 12.6122 9.73098 13.1716 9.17157C13.731 8.61216 14.4437 8.2312 15.2196 8.07686C15.9956 7.92252 16.7998 8.00173 17.5307 8.30448C18.2616 8.60723 18.8864 9.11992 19.3259 9.77772C19.7654 10.4355 20 11.2089 20 12C19.9989 13.0605 19.5772 14.0773 18.8273 14.8273C18.0773 15.5772 17.0605 15.9989 16 16ZM16 10C15.6044 10 15.2178 10.1173 14.8889 10.3371C14.56 10.5568 14.3036 10.8692 14.1522 11.2346C14.0009 11.6001 13.9613 12.0022 14.0384 12.3902C14.1156 12.7781 14.3061 13.1345 14.5858 13.4142C14.8655 13.6939 15.2219 13.8844 15.6098 13.9616C15.9978 14.0387 16.3999 13.9991 16.7654 13.8478C17.1308 13.6964 17.4432 13.44 17.6629 13.1111C17.8827 12.7822 18 12.3956 18 12C18 11.4696 17.7893 10.9609 17.4142 10.5858C17.0391 10.2107 16.5304 10 16 10Z" fill="white"/>
</g>
<defs>
<clipPath id="clip0_3021_2533">
<rect width="16" height="16" fill="white" transform="translate(8 8)"/>
</clipPath>
</defs>
</svg>
