<svg width="58" height="56" viewBox="0 0 58 56" fill="none" xmlns="http://www.w3.org/2000/svg">
<g clip-path="url(#clip0_3143_7748)">
<path d="M53.9547 0.0859375H11.9506C11.0948 0.0868787 10.2743 0.427271 9.66915 1.03243C9.06399 1.6376 8.7236 2.45811 8.72266 3.31394V19.2579H57.1786V3.31394C57.1779 2.45873 56.8382 1.6387 56.2338 1.03361C55.6295 0.428508 54.8099 0.0877129 53.9547 0.0859375Z" fill="#4267B2"/>
<path opacity="0.5" d="M53.9532 44.8859H11.9492C11.0938 44.885 10.2736 44.5447 9.66876 43.9398C9.06388 43.3349 8.72363 42.5148 8.72266 41.6594V3.31237C8.72364 2.45695 9.06389 1.63685 9.66877 1.03198C10.2737 0.427119 11.0938 0.0868861 11.9492 0.0859375H53.9532C54.8087 0.0868861 55.6288 0.427119 56.2337 1.03198C56.8386 1.63685 57.1788 2.45695 57.1798 3.31237V41.6594C57.1788 42.5148 56.8386 43.3349 56.2337 43.9398C55.6288 44.5447 54.8087 44.885 53.9532 44.8859Z" fill="#4267B2"/>
<path d="M24.3236 18.2606C27.2153 18.2606 29.5594 15.9164 29.5594 13.0248C29.5594 10.1332 27.2153 7.78906 24.3236 7.78906C21.432 7.78906 19.0879 10.1332 19.0879 13.0248C19.0879 15.9164 21.432 18.2606 24.3236 18.2606Z" fill="white"/>
<path d="M45.2526 26.2198H20.647C20.2335 26.2198 19.8369 26.0555 19.5445 25.7631C19.2521 25.4707 19.0879 25.0741 19.0879 24.6606C19.0879 24.2471 19.2521 23.8506 19.5445 23.5582C19.8369 23.2658 20.2335 23.1016 20.647 23.1016H45.2526C45.6661 23.1016 46.0627 23.2658 46.3551 23.5582C46.6475 23.8506 46.8117 24.2471 46.8117 24.6606C46.8117 25.0741 46.6475 25.4707 46.3551 25.7631C46.0627 26.0555 45.6661 26.2198 45.2526 26.2198Z" fill="white"/>
<path d="M32.5205 32.3801H20.6471C20.2336 32.3801 19.837 32.2158 19.5446 31.9234C19.2522 31.631 19.0879 31.2344 19.0879 30.8209C19.0879 30.4074 19.2522 30.0108 19.5446 29.7184C19.837 29.426 20.2336 29.2617 20.6471 29.2617H32.5205C32.9341 29.2617 33.3306 29.426 33.623 29.7184C33.9154 30.0108 34.0797 30.4074 34.0797 30.8209C34.0797 31.2344 33.9154 31.631 33.623 31.9234C33.3306 32.2158 32.9341 32.3801 32.5205 32.3801Z" fill="white"/>
<path d="M11.0728 56.1378C8.88627 56.1378 6.74887 55.4894 4.93085 54.2746C3.11283 53.0599 1.69585 51.3333 0.859108 49.3132C0.022366 47.2931 -0.196561 45.0703 0.230006 42.9258C0.656574 40.7813 1.70948 38.8115 3.25558 37.2654C4.80168 35.7193 6.77152 34.6663 8.91602 34.2398C11.0605 33.8132 13.2834 34.0321 15.3034 34.8689C17.3235 35.7056 19.0501 37.1226 20.2649 38.9406C21.4796 40.7586 22.128 42.8961 22.128 45.0826C22.128 48.0146 20.9632 50.8265 18.89 52.8998C16.8167 54.973 14.0048 56.1378 11.0728 56.1378Z" fill="#4267B2"/>
<path d="M15.434 43.9949H12.1625V40.7233C12.1625 40.4341 12.0476 40.1567 11.8431 39.9522C11.6386 39.7477 11.3612 39.6328 11.0719 39.6328C10.7827 39.6328 10.5053 39.7477 10.3008 39.9522C10.0963 40.1567 9.9814 40.4341 9.9814 40.7233V43.9949H6.7098C6.56642 43.9947 6.42438 44.0227 6.29183 44.0774C6.15928 44.132 6.03881 44.2123 5.93733 44.3136C5.83584 44.4149 5.75534 44.5352 5.7004 44.6677C5.64547 44.8001 5.61719 44.9421 5.61719 45.0855C5.61719 45.2289 5.64547 45.3708 5.7004 45.5033C5.75534 45.6357 5.83584 45.756 5.93733 45.8573C6.03881 45.9586 6.15928 46.0389 6.29183 46.0936C6.42438 46.1483 6.56642 46.1763 6.7098 46.176H9.9814V49.4476C9.9814 49.7368 10.0963 50.0142 10.3008 50.2187C10.5053 50.4232 10.7827 50.5381 11.0719 50.5381C11.3612 50.5381 11.6386 50.4232 11.8431 50.2187C12.0476 50.0142 12.1625 49.7368 12.1625 49.4476V46.176H15.434C15.7232 46.176 16.0006 46.0611 16.2051 45.8566C16.4097 45.6521 16.5245 45.3747 16.5245 45.0855C16.5245 44.7962 16.4097 44.5189 16.2051 44.3144C16.0006 44.1098 15.7232 43.9949 15.434 43.9949Z" fill="white"/>
</g>
<defs>
<clipPath id="clip0_3143_7748">
<rect width="57.2" height="56" fill="white"/>
</clipPath>
</defs>
</svg>
