<svg width="56" height="62" viewBox="0 0 56 62" fill="none" xmlns="http://www.w3.org/2000/svg">
<path d="M27.2077 6.3096H11.5074C11.3634 6.30935 11.2254 6.25198 11.1237 6.15008C11.022 6.04819 10.9648 5.9101 10.9648 5.76613C10.9648 5.62216 11.022 5.48407 11.1237 5.38218C11.2254 5.28028 11.3634 5.22291 11.5074 5.22266H27.2077C27.3518 5.22266 27.4901 5.27991 27.592 5.38184C27.6939 5.48376 27.7512 5.62199 27.7512 5.76613C27.7512 5.91027 27.6939 6.0485 27.592 6.15042C27.4901 6.25234 27.3518 6.3096 27.2077 6.3096Z" fill="white"/>
<path d="M23.2894 10.0518H11.5074C11.3634 10.0515 11.2254 9.99417 11.1237 9.89227C11.022 9.79038 10.9648 9.65229 10.9648 9.50832C10.9648 9.36435 11.022 9.22626 11.1237 9.12437C11.2254 9.02247 11.3634 8.9651 11.5074 8.96484H23.2894C23.4334 8.9651 23.5714 9.02247 23.6731 9.12437C23.7748 9.22626 23.8319 9.36435 23.8319 9.50832C23.8319 9.65229 23.7748 9.79038 23.6731 9.89227C23.5714 9.99417 23.4334 10.0515 23.2894 10.0518Z" fill="white"/>
<path d="M50.8432 56.3704H5.07066C4.91056 56.3702 4.75708 56.3065 4.64387 56.1933C4.53066 56.0801 4.46698 55.9266 4.4668 55.7665V5.40464C4.46698 5.24454 4.53066 5.09105 4.64387 4.97785C4.75708 4.86464 4.91056 4.80096 5.07066 4.80078H50.8432C51.0033 4.80096 51.1568 4.86464 51.27 4.97785C51.3832 5.09105 51.4469 5.24454 51.4471 5.40464V55.7665C51.4469 55.9266 51.3832 56.0801 51.27 56.1933C51.1568 56.3065 51.0033 56.3702 50.8432 56.3704Z" fill="white"/>
<path d="M50.8432 56.3704H5.07066C4.91056 56.3702 4.75708 56.3065 4.64387 56.1933C4.53066 56.0801 4.46698 55.9266 4.4668 55.7665V5.40464C4.46698 5.24454 4.53066 5.09105 4.64387 4.97785C4.75708 4.86464 4.91056 4.80096 5.07066 4.80078H50.8432C51.0033 4.80096 51.1568 4.86464 51.27 4.97785C51.3832 5.09105 51.4469 5.24454 51.4471 5.40464V55.7665C51.4469 55.9266 51.3832 56.0801 51.27 56.1933C51.1568 56.3065 51.0033 56.3702 50.8432 56.3704ZM5.07066 5.04232C4.9746 5.04242 4.88251 5.08063 4.81458 5.14855C4.74666 5.21648 4.70845 5.30857 4.70835 5.40463V55.7665C4.70845 55.8626 4.74666 55.9547 4.81458 56.0226C4.88251 56.0905 4.9746 56.1287 5.07066 56.1288H50.8432C50.9393 56.1287 51.0313 56.0905 51.0993 56.0226C51.1672 55.9547 51.2054 55.8626 51.2055 55.7665V5.40463C51.2054 5.30857 51.1672 5.21648 51.0993 5.14855C51.0313 5.08063 50.9393 5.04242 50.8432 5.04232H5.07066Z" fill="#3F3D56"/>
<path d="M26.7076 24.7286H10.2017C10.0576 24.7284 9.91945 24.6711 9.81756 24.5692C9.71568 24.4673 9.65837 24.3292 9.6582 24.1851V12.8325C9.65837 12.6884 9.71568 12.5503 9.81756 12.4484C9.91945 12.3465 10.0576 12.2892 10.2017 12.2891H26.7076C26.8517 12.2892 26.9898 12.3465 27.0917 12.4484C27.1936 12.5503 27.2509 12.6884 27.2511 12.8325V24.1851C27.2509 24.3292 27.1936 24.4673 27.0917 24.5692C26.9898 24.6711 26.8517 24.7284 26.7076 24.7286Z" fill="#4267B2"/>
<path d="M45.7086 30.9502H10.2017C10.0575 30.9502 9.91931 30.893 9.81739 30.791C9.71546 30.6891 9.6582 30.5509 9.6582 30.4068C9.6582 30.2626 9.71546 30.1244 9.81739 30.0225C9.91931 29.9205 10.0575 29.8633 10.2017 29.8633H45.7086C45.8527 29.8633 45.991 29.9205 46.0929 30.0225C46.1948 30.1244 46.2521 30.2626 46.2521 30.4068C46.2521 30.5509 46.1948 30.6891 46.0929 30.791C45.991 30.893 45.8527 30.9502 45.7086 30.9502Z" fill="#CCCCCC"/>
<path d="M37.1338 34.6924H10.2017C10.0575 34.6924 9.9193 34.6352 9.81738 34.5332C9.71546 34.4313 9.6582 34.2931 9.6582 34.1489C9.6582 34.0048 9.71546 33.8666 9.81738 33.7647C9.9193 33.6627 10.0575 33.6055 10.2017 33.6055H37.1338C37.2779 33.6055 37.4162 33.6627 37.5181 33.7647C37.62 33.8666 37.6773 34.0048 37.6773 34.1489C37.6773 34.2931 37.62 34.4313 37.5181 34.5332C37.4162 34.6352 37.2779 34.6924 37.1338 34.6924Z" fill="#CCCCCC"/>
<path d="M45.5895 17.1807H29.8892C29.745 17.1807 29.6068 17.1234 29.5049 17.0215C29.403 16.9196 29.3457 16.7814 29.3457 16.6372C29.3457 16.4931 29.403 16.3548 29.5049 16.2529C29.6068 16.151 29.745 16.0938 29.8892 16.0938H45.5895C45.7337 16.0938 45.8719 16.151 45.9738 16.2529C46.0757 16.3548 46.133 16.4931 46.133 16.6372C46.133 16.7814 46.0757 16.9196 45.9738 17.0215C45.8719 17.1234 45.7337 17.1807 45.5895 17.1807Z" fill="#4267B2"/>
<path d="M41.6703 20.9268H29.8882C29.7442 20.9265 29.6063 20.8692 29.5045 20.7673C29.4028 20.6654 29.3457 20.5273 29.3457 20.3833C29.3457 20.2393 29.4028 20.1013 29.5045 19.9994C29.6063 19.8975 29.7442 19.8401 29.8882 19.8398H41.6703C41.8143 19.8401 41.9522 19.8975 42.054 19.9994C42.1557 20.1013 42.2128 20.2393 42.2128 20.3833C42.2128 20.5273 42.1557 20.6654 42.054 20.7673C41.9522 20.8692 41.8143 20.9265 41.6703 20.9268Z" fill="#4267B2"/>
<path d="M45.7086 38.4346H10.2017C10.0575 38.4346 9.91931 38.3773 9.81739 38.2754C9.71546 38.1735 9.6582 38.0353 9.6582 37.8911C9.6582 37.747 9.71546 37.6088 9.81739 37.5068C9.91931 37.4049 10.0575 37.3477 10.2017 37.3477H45.7086C45.8527 37.3477 45.991 37.4049 46.0929 37.5068C46.1948 37.6088 46.2521 37.747 46.2521 37.8911C46.2521 38.0353 46.1948 38.1735 46.0929 38.2754C45.991 38.3773 45.8527 38.4346 45.7086 38.4346Z" fill="#CCCCCC"/>
<path d="M37.1348 42.1807H10.2027C10.0587 42.1804 9.9207 42.1231 9.81899 42.0212C9.71728 41.9193 9.66016 41.7812 9.66016 41.6372C9.66016 41.4933 9.71728 41.3552 9.81899 41.2533C9.9207 41.1514 10.0587 41.094 10.2027 41.0938H37.1348C37.2789 41.0938 37.4172 41.151 37.5191 41.2529C37.621 41.3549 37.6783 41.4931 37.6783 41.6372C37.6783 41.7814 37.621 41.9196 37.5191 42.0215C37.4172 42.1234 37.2789 42.1807 37.1348 42.1807Z" fill="#CCCCCC"/>
<path d="M45.7096 45.9229H10.2027C10.0587 45.9226 9.92071 45.8653 9.819 45.7634C9.71729 45.6615 9.66016 45.5234 9.66016 45.3794C9.66016 45.2354 9.71729 45.0973 9.819 44.9955C9.92071 44.8936 10.0587 44.8362 10.2027 44.8359H45.7096C45.8537 44.8359 45.992 44.8932 46.0939 44.9951C46.1958 45.097 46.2531 45.2353 46.2531 45.3794C46.2531 45.5235 46.1958 45.6618 46.0939 45.7637C45.992 45.8656 45.8537 45.9229 45.7096 45.9229Z" fill="#CCCCCC"/>
<path d="M45.7086 49.669H10.2017C10.0575 49.669 9.91931 49.6117 9.81739 49.5098C9.71546 49.4079 9.6582 49.2696 9.6582 49.1255C9.6582 48.9814 9.71546 48.8431 9.81739 48.7412C9.91931 48.6393 10.0575 48.582 10.2017 48.582H45.7086C45.8527 48.582 45.991 48.6393 46.0929 48.7412C46.1948 48.8431 46.2521 48.9814 46.2521 49.1255C46.2521 49.2696 46.1948 49.4079 46.0929 49.5098C45.991 49.6117 45.8527 49.669 45.7086 49.669Z" fill="#CCCCCC"/>
</svg>
