<svg width="122" height="123" viewBox="0 0 122 123" fill="none" xmlns="http://www.w3.org/2000/svg">
<path d="M101.299 58.8242H18.2974C17.0006 58.8257 15.7574 59.3415 14.8405 60.2584C13.9235 61.1754 13.4077 62.4186 13.4062 63.7154V115.392C13.4077 116.688 13.9235 117.932 14.8405 118.849C15.7574 119.766 17.0007 120.281 18.2974 120.283H101.299C102.596 120.281 103.839 119.766 104.756 118.849C105.673 117.932 106.189 116.688 106.19 115.392V63.7154C106.189 62.4186 105.673 61.1754 104.756 60.2584C103.839 59.3415 102.596 58.8257 101.299 58.8242Z" fill="#4267B2"/>
<path d="M101.299 58.8242H18.2974C17.0006 58.8257 15.7574 59.3415 14.8405 60.2584C13.9235 61.1754 13.4077 62.4186 13.4062 63.7154V115.392C13.4077 116.688 13.9235 117.932 14.8405 118.849C15.7574 119.766 17.0007 120.281 18.2974 120.283H101.299C102.596 120.281 103.839 119.766 104.756 118.849C105.673 117.932 106.189 116.688 106.19 115.392V63.7154C106.189 62.4186 105.673 61.1754 104.756 60.2584C103.839 59.3415 102.596 58.8257 101.299 58.8242ZM102.904 95.944C102.884 101.205 100.803 106.249 97.1075 109.993C93.4118 113.737 88.3958 115.884 83.1356 115.972C74.7135 116.082 87.7954 116.125 77.6378 116.125C54.4108 116.125 30.1915 115.903 21.1549 115.759C19.966 115.734 18.8338 115.246 18 114.398C17.1662 113.55 16.6969 112.41 16.6923 111.221V63.7192C16.6928 63.2934 16.8619 62.8851 17.1626 62.5836C17.4633 62.2821 17.8712 62.112 18.2971 62.1105H101.296C101.721 62.1109 102.13 62.28 102.431 62.5807C102.732 62.8814 102.902 63.2892 102.904 63.7149V95.944Z" fill="#0B1C42"/>
<path d="M91.0847 29.0703H27.8463C27.2868 29.0711 26.7411 29.2446 26.2838 29.567C25.8266 29.8895 25.48 30.3452 25.2913 30.872L15.5246 58.2731C15.3788 58.6821 15.3334 59.1201 15.3921 59.5503C15.4508 59.9805 15.6118 60.3904 15.8618 60.7454C16.1118 61.1004 16.4433 61.3902 16.8286 61.5905C17.2138 61.7907 17.6415 61.8956 18.0757 61.8962L102.889 62.0467H102.893C103.341 62.0467 103.783 61.9353 104.178 61.7225C104.574 61.5097 104.91 61.2022 105.157 60.8274C105.404 60.4527 105.554 60.0226 105.594 59.5755C105.634 59.1284 105.562 58.6784 105.386 58.2659L93.5777 30.7142C93.369 30.2261 93.0214 29.81 92.5782 29.5178C92.1349 29.2255 91.6156 29.0699 91.0847 29.0703Z" fill="#0B1C42"/>
<path d="M105.605 58.8578C105.604 59.2252 105.53 59.5888 105.385 59.9265L93.578 81.135C93.3678 81.6221 93.0197 82.0371 92.5766 82.3288C92.1335 82.6206 91.6148 82.7764 91.0843 82.7771H27.8468C27.2871 82.7766 26.7412 82.6033 26.2835 82.2811C25.8259 81.9588 25.4788 81.5032 25.2897 80.9764L15.5248 59.9192C15.4051 59.5837 15.3527 59.228 15.3706 58.8722C15.3885 58.5165 15.4763 58.1678 15.629 57.846C15.7818 57.5242 15.9964 57.2357 16.2607 56.9969C16.525 56.7581 16.8338 56.5738 17.1694 56.4544C17.4597 56.3496 17.766 56.2959 18.0746 56.2958L28.4349 56.2763L32.6634 56.269L88.3051 56.1714L92.5361 56.1641L102.889 56.1445H102.891C103.611 56.1447 104.301 56.4306 104.81 56.9394C105.319 57.4482 105.605 58.1382 105.605 58.8578Z" fill="#0B1C42"/>
<path d="M24.5206 97.5898C25.7746 97.5898 42.9948 98.6423 42.9948 99.8963C42.9948 101.15 25.7746 102.131 24.5206 102.131C23.9184 102.131 23.3408 101.892 22.915 101.466C22.4892 101.04 22.25 100.463 22.25 99.8604C22.25 99.2582 22.4892 98.6807 22.915 98.2549C23.3408 97.8291 23.9184 97.5898 24.5206 97.5898Z" fill="#0B1C42"/>
<path d="M87.1449 12.3984H33.8236C32.3946 12.4001 31.0246 12.9685 30.0141 13.9789C29.0037 14.9894 28.4352 16.3594 28.4336 17.7884V82.7778H91.083C91.5975 82.7794 92.1015 82.6329 92.5348 82.3557V17.7884C92.5332 16.3594 91.9648 14.9894 90.9543 13.9789C89.9439 12.9685 88.5739 12.4001 87.1449 12.3984Z" fill="#E6E6E6"/>
<path d="M66.7909 16.7695H37.5694C36.2682 16.7708 35.0206 17.2881 34.1003 18.208C33.18 19.1278 32.6621 20.3752 32.6602 21.6764V82.7789H88.3019V38.2806C88.2953 32.5775 86.0269 27.1099 81.9942 23.0772C77.9615 19.0446 72.4939 16.7761 66.7909 16.7695Z" fill="white"/>
<path d="M78.8239 77.3516H42.1409C41.8238 77.3516 41.5197 77.4775 41.2955 77.7017C41.0713 77.926 40.9453 78.2301 40.9453 78.5472C40.9453 78.8643 41.0713 79.1684 41.2955 79.3926C41.5197 79.6168 41.8238 79.7428 42.1409 79.7428H78.8239C79.141 79.7428 79.4451 79.6168 79.6693 79.3926C79.8935 79.1684 80.0195 78.8643 80.0195 78.5472C80.0195 78.2301 79.8935 77.926 79.6693 77.7017C79.4451 77.4775 79.141 77.3516 78.8239 77.3516Z" fill="#E4E4E4"/>
<path d="M78.8251 72.625H42.1421C41.8247 72.625 41.5203 72.7511 41.2959 72.9755C41.0714 73.2 40.9453 73.5044 40.9453 73.8218C40.9453 74.1392 41.0714 74.4437 41.2959 74.6681C41.5203 74.8925 41.8247 75.0186 42.1421 75.0186H78.8251C79.1425 75.0186 79.4469 74.8925 79.6714 74.6681C79.8958 74.4437 80.0219 74.1392 80.0219 73.8218C80.0219 73.5044 79.8958 73.2 79.6714 72.9755C79.4469 72.7511 79.1425 72.625 78.8251 72.625Z" fill="#E4E4E4"/>
<path d="M58.0424 67.8984H42.1409C41.8238 67.8984 41.5197 68.0244 41.2955 68.2486C41.0713 68.4728 40.9453 68.7769 40.9453 69.094C40.9453 69.4111 41.0713 69.7152 41.2955 69.9395C41.5197 70.1637 41.8238 70.2896 42.1409 70.2896H58.0424C58.3595 70.2896 58.6636 70.1637 58.8878 69.9395C59.112 69.7152 59.238 69.4111 59.238 69.094C59.238 68.7769 59.112 68.4728 58.8878 68.2486C58.6636 68.0244 58.3595 67.8984 58.0424 67.8984Z" fill="#E4E4E4"/>
<path d="M78.8251 57.9961H42.1421C41.8247 57.9961 41.5203 58.1222 41.2959 58.3466C41.0714 58.5711 40.9453 58.8755 40.9453 59.1929C40.9453 59.5103 41.0714 59.8147 41.2959 60.0392C41.5203 60.2636 41.8247 60.3897 42.1421 60.3897H78.8251C79.1425 60.3897 79.4469 60.2636 79.6714 60.0392C79.8958 59.8147 80.0219 59.5103 80.0219 59.1929C80.0219 58.8755 79.8958 58.5711 79.6714 58.3466C79.4469 58.1222 79.1425 57.9961 78.8251 57.9961Z" fill="#E4E4E4"/>
<path d="M78.8239 53.2695H42.1409C41.8238 53.2695 41.5197 53.3955 41.2955 53.6197C41.0713 53.8439 40.9453 54.148 40.9453 54.4651C40.9453 54.7822 41.0713 55.0863 41.2955 55.3105C41.5197 55.5348 41.8238 55.6607 42.1409 55.6607H78.8239C79.141 55.6607 79.4451 55.5348 79.6693 55.3105C79.8935 55.0863 80.0195 54.7822 80.0195 54.4651C80.0195 54.148 79.8935 53.8439 79.6693 53.6197C79.4451 53.3955 79.141 53.2695 78.8239 53.2695Z" fill="#E4E4E4"/>
<path d="M58.0436 48.5391H42.1421C41.8247 48.5391 41.5203 48.6652 41.2959 48.8896C41.0714 49.1141 40.9453 49.4185 40.9453 49.7359C40.9453 50.0533 41.0714 50.3577 41.2959 50.5822C41.5203 50.8066 41.8247 50.9327 42.1421 50.9327H58.0436C58.361 50.9327 58.6654 50.8066 58.8899 50.5822C59.1143 50.3577 59.2404 50.0533 59.2404 49.7359C59.2404 49.4185 59.1143 49.1141 58.8899 48.8896C58.6654 48.6652 58.361 48.5391 58.0436 48.5391Z" fill="#E4E4E4"/>
<path d="M78.8251 38.6406H42.1421C41.8247 38.6406 41.5203 38.7667 41.2959 38.9912C41.0714 39.2156 40.9453 39.52 40.9453 39.8374C40.9453 40.1549 41.0714 40.4593 41.2959 40.6837C41.5203 40.9082 41.8247 41.0343 42.1421 41.0343H78.8251C79.1425 41.0343 79.4469 40.9082 79.6714 40.6837C79.8958 40.4593 80.0219 40.1549 80.0219 39.8374C80.0219 39.52 79.8958 39.2156 79.6714 38.9912C79.4469 38.7667 79.1425 38.6406 78.8251 38.6406Z" fill="#4267B2"/>
<path d="M78.8251 33.9102H42.1421C41.8247 33.9102 41.5203 34.0363 41.2959 34.2607C41.0714 34.4851 40.9453 34.7896 40.9453 35.107C40.9453 35.4244 41.0714 35.7288 41.2959 35.9533C41.5203 36.1777 41.8247 36.3038 42.1421 36.3038H78.8251C79.1425 36.3038 79.4469 36.1777 79.6714 35.9533C79.8958 35.7288 80.0219 35.4244 80.0219 35.107C80.0219 34.7896 79.8958 34.4851 79.6714 34.2607C79.4469 34.0363 79.1425 33.9102 78.8251 33.9102Z" fill="#4267B2"/>
<path d="M58.0436 29.1836H42.1421C41.8247 29.1836 41.5203 29.3097 41.2959 29.5341C41.0714 29.7586 40.9453 30.063 40.9453 30.3804C40.9453 30.6978 41.0714 31.0022 41.2959 31.2267C41.5203 31.4511 41.8247 31.5772 42.1421 31.5772H58.0436C58.361 31.5772 58.6654 31.4511 58.8899 31.2267C59.1143 31.0022 59.2404 30.6978 59.2404 30.3804C59.2404 30.063 59.1143 29.7586 58.8899 29.5341C58.6654 29.3097 58.361 29.1836 58.0436 29.1836Z" fill="#4267B2"/>
<path d="M90.5344 21.6235C95.6771 21.6235 99.8461 17.4545 99.8461 12.3117C99.8461 7.169 95.6771 3 90.5344 3C85.3917 3 81.2227 7.169 81.2227 12.3117C81.2227 17.4545 85.3917 21.6235 90.5344 21.6235Z" fill="#4267B2"/>
<path d="M89.2653 17.1577C89.1045 17.1577 88.9459 17.1202 88.8021 17.0483C88.6583 16.9763 88.5332 16.8719 88.4367 16.7432L85.8964 13.356C85.8143 13.2472 85.7545 13.1233 85.7204 12.9914C85.6863 12.8595 85.6786 12.7221 85.6977 12.5872C85.7168 12.4523 85.7623 12.3225 85.8317 12.2052C85.901 12.0879 85.9928 11.9854 86.1018 11.9037C86.2109 11.8219 86.3349 11.7625 86.4669 11.7287C86.599 11.695 86.7363 11.6877 86.8712 11.7071C87.0061 11.7266 87.1358 11.7725 87.2529 11.8421C87.37 11.9118 87.4722 12.0039 87.5536 12.1131L89.2156 14.329L93.4843 7.9261C93.6367 7.69752 93.8736 7.53884 94.143 7.48496C94.4124 7.43109 94.6921 7.48643 94.9207 7.63881C95.1493 7.7912 95.308 8.02815 95.3618 8.29753C95.4157 8.56691 95.3604 8.84666 95.208 9.07524L90.1272 16.6964C90.0353 16.8342 89.9117 16.948 89.7667 17.0282C89.6218 17.1084 89.4597 17.1527 89.2941 17.1573C89.2845 17.1575 89.2749 17.1577 89.2653 17.1577Z" fill="white"/>
</svg>
