<svg width="56" height="56" viewBox="0 0 56 56" fill="none" xmlns="http://www.w3.org/2000/svg">
<g clip-path="url(#clip0_3143_7760)">
<path d="M27.5044 36.5576C22.4845 36.5576 18.415 32.4882 18.415 27.4683C18.415 22.4484 22.4845 18.3789 27.5044 18.3789C32.5243 18.3789 36.5938 22.4484 36.5938 27.4683C36.5938 32.4882 32.5243 36.5576 27.5044 36.5576Z" fill="#A0616A"/>
<path d="M35.0254 38.5931L33.1307 33.751L23.3412 32.2773L22.2894 42.996L32.1841 43.2065L35.0254 38.5931Z" fill="#A0616A"/>
<path d="M18.3228 29.1457C18.4408 29.6183 18.6792 30.7436 19.0516 30.7491C19.3559 30.7536 19.6471 25.8718 19.3432 25.0643C18.9941 24.1367 19.9115 22.9632 20.6025 22.3608C21.8451 21.2777 24.6033 23.6034 27.4079 22.5499C27.4823 22.522 27.4675 22.5251 28.3531 22.1718C31.0783 21.0844 31.2216 21.0531 31.3777 21.0376C32.6988 20.9069 34.3111 21.9879 34.9695 23.306C35.6538 24.6762 35.082 25.8514 35.7256 29.1662C35.8006 29.5526 35.9184 30.1033 36.1037 30.1114C36.4424 30.1262 36.7732 28.3168 36.8598 27.8429C37.2228 25.8575 37.5727 23.9433 36.8598 21.7937C36.7821 21.5593 36.3028 20.689 35.3475 18.9581C33.9713 16.4646 33.2791 15.2132 33.0791 14.9883C31.6445 13.375 29.0332 11.9033 26.8408 12.5308C25.7327 12.848 25.9314 13.3579 24.5723 13.8541C22.1504 14.7384 20.0455 13.6569 19.6573 14.4212C19.4517 14.826 20.0271 15.1598 20.0354 15.9335C20.0497 17.261 18.3708 17.6446 17.3889 18.9581C16.861 19.6643 15.9576 19.6718 18.3228 29.1457Z" fill="#333333"/>
<path d="M7.06317 46.589C7.42951 47.0006 7.80949 47.4038 8.20318 47.7975C13.4916 53.0858 20.5232 55.9985 28.0021 55.9985C34.4663 55.9985 40.5958 53.8227 45.5548 49.8174C45.5579 49.8154 45.56 49.8132 45.5632 49.81C46.2211 49.2796 46.8579 48.7154 47.4727 48.1196C47.4611 48.0269 47.4484 47.9353 47.4348 47.8448C47.3485 47.2343 47.2526 46.6521 47.1453 46.1164C46.2663 41.7248 34.7011 37.1143 34.4 36.9942C34.3958 36.9932 34.3937 36.9922 34.3937 36.9922C34.3937 36.9922 32.9053 42.4785 26.5274 42.408C22.1832 42.3606 23.0253 36.9922 23.0253 36.9922C23.0253 36.9922 22.9727 37.0027 22.8737 37.0237C21.619 37.2901 12.9074 39.2037 9.47055 41.8154C8.42319 42.6111 7.67162 44.3059 7.13161 46.3269C7.10845 46.4132 7.08635 46.5016 7.06317 46.589Z" fill="#4267B2"/>
<path d="M8.20104 8.20107C13.4895 2.91273 20.521 0 28 0C35.479 0 42.5105 2.91273 47.799 8.20107C53.0874 13.4895 56 20.5211 56 28C56 34.8264 53.5737 41.28 49.1274 46.3758C48.7032 46.8632 48.26 47.3379 47.799 47.799C47.6905 47.9074 47.5811 48.0158 47.4705 48.1211C46.8558 48.7169 46.2189 49.2811 45.561 49.8116C45.5579 49.8148 45.5558 49.8169 45.5526 49.819C40.5937 53.8242 34.4642 56 28 56C20.521 56 13.4895 53.0874 8.20104 47.799C7.80736 47.4053 7.42738 47.0022 7.06104 46.5906C2.49578 41.4622 0 34.9232 0 28C0 20.5211 2.91262 13.4895 8.20104 8.20107ZM7.12947 46.3284C7.95788 47.2706 8.84843 48.1569 9.7958 48.979C11.5926 50.5421 13.5926 51.8769 15.7495 52.9401C16.5063 53.3137 17.2821 53.6537 18.0758 53.958C21.1589 55.1411 24.5053 55.7895 28 55.7895C31.3726 55.7895 34.6063 55.1853 37.5989 54.0801C38.8274 53.6274 40.0147 53.0895 41.1547 52.4737C41.3221 52.3832 41.4884 52.2916 41.6537 52.198C42.5232 51.7053 43.3642 51.1675 44.1716 50.5863C45.3284 49.7569 46.4189 48.84 47.4326 47.8463C48.0011 47.2895 48.5442 46.7095 49.0631 46.1064C53.2537 41.239 55.7895 34.9106 55.7895 28C55.7895 12.6769 43.3232 0.210526 28 0.210526C12.6768 0.210526 0.210526 12.6769 0.210526 28C0.210526 35.0169 2.82419 41.4337 7.12947 46.3284Z" fill="#3F3D56"/>
<path d="M35.9718 45.9367C36.3223 41.7015 33.1731 37.984 28.9379 37.6335C24.7027 37.283 20.9852 40.4321 20.6347 44.6674C20.2842 48.9026 23.4333 52.6201 27.6686 52.9706C31.9038 53.3211 35.6213 50.1719 35.9718 45.9367Z" fill="#E1306C"/>
<path d="M30.3283 42.0931L28.307 44.1143L26.2858 42.0931C25.9586 41.7659 25.4281 41.7659 25.1009 42.0931C24.7737 42.4203 24.7737 42.9507 25.1009 43.2779L27.1221 45.2992L25.1009 47.3205C24.774 47.648 24.7745 48.1785 25.102 48.5054C25.429 48.8318 25.9587 48.8318 26.2858 48.5054L28.307 46.4841L30.3283 48.5054C30.6558 48.8323 31.1863 48.8318 31.5132 48.5043C31.8397 48.1772 31.8397 47.6476 31.5132 47.3205L29.4919 45.2992L31.5132 43.2779C31.8404 42.9507 31.8404 42.4203 31.5132 42.0931C31.186 41.7659 30.6555 41.7659 30.3283 42.0931Z" fill="white"/>
</g>
<defs>
<clipPath id="clip0_3143_7760">
<rect width="56" height="56" fill="white" transform="matrix(-1 0 0 1 56 0)"/>
</clipPath>
</defs>
</svg>
