<svg width="128" height="131" viewBox="0 0 128 131" fill="none" xmlns="http://www.w3.org/2000/svg">
<g clip-path="url(#clip0_3143_6747)">
<path d="M111.621 106.64C111.583 106.64 111.559 106.639 111.551 106.638L107.066 106.639V105.977H111.567C111.672 105.981 113.798 106.041 115.757 103.664C118.677 100.121 121.074 91.3501 115.916 69.6867C108.981 40.5571 114.765 14.8227 117.574 5.1106C117.713 4.6301 117.737 4.124 117.647 3.63229C117.556 3.14057 117.352 2.67673 117.051 2.27738C116.75 1.87804 116.36 1.55415 115.913 1.3313C115.465 1.10846 114.972 0.992761 114.472 0.993354H47.4885C46.9792 0.994037 46.4773 1.11478 46.0235 1.3458C45.5696 1.57681 45.1766 1.91158 44.8764 2.32293C43.6865 3.95976 42.0535 7.10424 41.0317 12.79L40.3809 12.6731C41.4248 6.86383 43.1109 3.62683 44.3415 1.93414C44.7031 1.43848 45.1766 1.0351 45.7234 0.756727C46.2702 0.478358 46.8749 0.332855 47.4885 0.332033H114.472C115.074 0.331453 115.669 0.471004 116.208 0.739659C116.747 1.00831 117.217 1.39871 117.58 1.88002C117.942 2.36132 118.188 2.92033 118.297 3.51289C118.406 4.10545 118.376 4.71533 118.21 5.29433C115.415 14.9561 109.661 40.5569 116.56 69.5336C121.79 91.5017 119.276 100.462 116.245 104.111C114.247 106.518 112.044 106.64 111.621 106.64Z" fill="#333333"/>
<path d="M99.5522 118.71C99.5148 118.71 99.4912 118.709 99.483 118.708L94.9978 118.709V118.048H99.4992C99.604 118.051 101.73 118.111 103.689 115.734C106.608 112.191 109.006 103.42 103.848 81.757C96.9125 52.6274 102.697 26.893 105.506 17.1809C105.644 16.7004 105.669 16.1943 105.578 15.7026C105.487 15.2109 105.284 14.747 104.983 14.3477C104.682 13.9484 104.292 13.6245 103.844 13.4016C103.397 13.1788 102.903 13.0631 102.403 13.0637H35.4202C34.9109 13.0644 34.409 13.1851 33.9551 13.4161C33.5013 13.6471 33.1083 13.9819 32.8081 14.3932C31.6182 16.0301 29.9852 19.1746 28.9634 24.8603L28.3125 24.7434C29.3565 18.9341 31.0426 15.6971 32.2732 14.0045C32.6348 13.5088 33.1083 13.1054 33.6551 12.827C34.2019 12.5487 34.8066 12.4032 35.4202 12.4023H102.403C103.006 12.4018 103.6 12.5413 104.14 12.81C104.679 13.0786 105.149 13.469 105.511 13.9503C105.874 14.4316 106.119 14.9906 106.229 15.5832C106.338 16.1758 106.308 16.7856 106.141 17.3646C103.347 27.0264 97.5922 52.6272 104.492 81.6039C109.722 103.572 107.207 112.533 104.177 116.181C102.178 118.588 99.9761 118.71 99.5522 118.71Z" fill="#757575"/>
<path d="M92.4217 93.6712C85.5214 64.6947 91.2767 39.0918 94.0724 29.432C94.2388 28.853 94.2685 28.2432 94.159 27.6508C94.0494 27.0583 93.8038 26.4994 93.4413 26.0182C93.0789 25.5369 92.6096 25.1464 92.0704 24.8775C91.5313 24.6086 90.937 24.4687 90.3346 24.4688H23.3498C22.7365 24.4694 22.132 24.6146 21.5854 24.8927C21.0388 25.1709 20.5655 25.574 20.2039 26.0695C17.5 29.7877 11.8892 42.1181 18.1559 76.2358C21.5073 94.4883 21.4573 106.933 20.3624 115.131C19.7481 119.747 18.8006 123.015 17.9418 125.218L17.8502 125.452C17.6693 125.898 17.575 126.374 17.5723 126.855C17.566 127.399 17.6749 127.937 17.8919 128.435C18.1089 128.933 18.429 129.38 18.8311 129.745C19.0933 129.991 19.3901 130.197 19.712 130.357C19.9793 130.493 20.2621 130.597 20.5541 130.665C20.8516 130.738 21.1567 130.774 21.4629 130.774H87.4139C87.4223 130.774 87.4444 130.776 87.4834 130.776C87.9058 130.776 90.1096 130.654 92.1077 128.248C95.1367 124.599 97.6517 115.639 92.4217 93.6712ZM91.6185 127.8C89.6594 130.179 87.5335 130.118 87.4306 130.115H21.4629C20.9347 130.115 20.4147 129.985 19.9481 129.738C19.4816 129.49 19.0828 129.132 18.7866 128.695C18.5261 128.317 18.3511 127.887 18.2738 127.434C18.1965 126.981 18.2189 126.517 18.3392 126.074C18.3707 125.946 18.4116 125.819 18.4615 125.696C19.4424 123.176 20.1695 120.563 20.6319 117.899C22.1993 109.353 22.491 96.1668 18.8062 76.1163C12.5868 42.2515 18.0864 30.1073 20.7375 26.4585C21.0382 26.0478 21.4314 25.7135 21.8852 25.4828C22.339 25.252 22.8407 25.1312 23.3498 25.1302H90.3346C90.8343 25.1298 91.3273 25.2456 91.7747 25.4685C92.222 25.6913 92.6114 26.015 92.9122 26.4142C93.2129 26.8133 93.4168 27.2769 93.5077 27.7683C93.5986 28.2597 93.5741 28.7655 93.436 29.2458C90.6264 38.9584 84.8433 64.6947 91.7797 93.8241C96.9375 115.486 94.5393 124.257 91.6185 127.8Z" fill="white"/>
<path d="M74.4147 55.9129H27.1864C26.2263 55.9129 25.3056 55.6348 24.6267 55.1397C23.9478 54.6446 23.5664 53.973 23.5664 53.2729C23.5664 52.5727 23.9478 51.9012 24.6267 51.4061C25.3056 50.911 26.2263 50.6328 27.1864 50.6328H74.4147C75.3747 50.6328 76.2955 50.911 76.9744 51.4061C77.6533 51.9012 78.0347 52.5727 78.0347 53.2729C78.0347 53.973 77.6533 54.6446 76.9744 55.1397C76.2955 55.6348 75.3747 55.9129 74.4147 55.9129Z" fill="#EEEEEE"/>
<path d="M74.4147 67.3074H27.1864C26.2263 67.3074 25.3056 67.0293 24.6267 66.5342C23.9478 66.0391 23.5664 65.3676 23.5664 64.6674C23.5664 63.9672 23.9478 63.2957 24.6267 62.8006C25.3056 62.3055 26.2263 62.0273 27.1864 62.0273H74.4147C75.3747 62.0273 76.2955 62.3055 76.9744 62.8006C77.6533 63.2957 78.0347 63.9672 78.0347 64.6674C78.0347 65.3676 77.6533 66.0391 76.9744 66.5342C76.2955 67.0293 75.3747 67.3074 74.4147 67.3074Z" fill="#EEEEEE"/>
<path d="M78.2854 78.9793H30.8162C29.8512 78.9793 28.9258 78.7012 28.2434 78.2061C27.5611 77.711 27.1777 77.0395 27.1777 76.3393C27.1777 75.6391 27.5611 74.9676 28.2434 74.4725C28.9258 73.9774 29.8512 73.6992 30.8162 73.6992H78.2854C79.2504 73.6992 80.1759 73.9774 80.8582 74.4725C81.5406 74.9676 81.9239 75.6391 81.9239 76.3393C81.9239 77.0395 81.5406 77.711 80.8582 78.2061C80.1759 78.7012 79.2504 78.9793 78.2854 78.9793Z" fill="#EEEEEE"/>
<path d="M81.0647 91.2059H33.5955C32.6305 91.2059 31.7051 90.9277 31.0227 90.4326C30.3404 89.9375 29.957 89.266 29.957 88.5658C29.957 87.8656 30.3404 87.1941 31.0227 86.699C31.7051 86.2039 32.6305 85.9258 33.5955 85.9258H81.0647C82.0297 85.9258 82.9552 86.2039 83.6375 86.699C84.3198 87.1941 84.7032 87.8656 84.7032 88.5658C84.7032 89.266 84.3198 89.9375 83.6375 90.4326C82.9552 90.9277 82.0297 91.2059 81.0647 91.2059Z" fill="#EEEEEE"/>
<path d="M83.2874 103.155H35.8182C34.8532 103.155 33.9277 102.877 33.2454 102.382C32.563 101.887 32.1797 101.215 32.1797 100.515C32.1797 99.8149 32.563 99.1433 33.2454 98.6482C33.9277 98.1531 34.8532 97.875 35.8182 97.875H83.2874C84.2524 97.875 85.1778 98.1531 85.8602 98.6482C86.5425 99.1433 86.9259 99.8149 86.9259 100.515C86.9259 101.215 86.5425 101.887 85.8602 102.382C85.1778 102.877 84.2524 103.155 83.2874 103.155Z" fill="#EEEEEE"/>
</g>
<defs>
<clipPath id="clip0_3143_6747">
<rect width="127" height="130.335" fill="white" transform="translate(0.5 0.332031)"/>
</clipPath>
</defs>
</svg>
